<svg xmlns="http://www.w3.org/2000/svg" xmlns:xlink="http://www.w3.org/1999/xlink" width="300" zoomAndPan="magnify" viewBox="0 0 224.87999 225" height="300" preserveAspectRatio="xMidYMid meet" version="1.0"><defs><clipPath id="6543f0e619"><path d="M 0.769531 0.828125 L 210.109375 0.828125 L 210.109375 210.171875 L 0.769531 210.171875 Z M 0.769531 0.828125 " clip-rule="nonzero"/></clipPath><clipPath id="301ef9f9d1"><path d="M 105.441406 0.828125 C 47.632812 0.828125 0.769531 47.691406 0.769531 105.5 C 0.769531 163.308594 47.632812 210.171875 105.441406 210.171875 C 163.25 210.171875 210.109375 163.308594 210.109375 105.5 C 210.109375 47.691406 163.25 0.828125 105.441406 0.828125 Z M 105.441406 0.828125 " clip-rule="nonzero"/></clipPath><clipPath id="19f680ba37"><path d="M 0.769531 0.828125 L 210.109375 0.828125 L 210.109375 210.171875 L 0.769531 210.171875 Z M 0.769531 0.828125 " clip-rule="nonzero"/></clipPath><clipPath id="b53ad698e4"><path d="M 105.441406 0.828125 C 47.632812 0.828125 0.769531 47.691406 0.769531 105.5 C 0.769531 163.308594 47.632812 210.171875 105.441406 210.171875 C 163.25 210.171875 210.109375 163.308594 210.109375 105.5 C 210.109375 47.691406 163.25 0.828125 105.441406 0.828125 Z M 105.441406 0.828125 " clip-rule="nonzero"/></clipPath><clipPath id="2b8abd9288"><rect x="0" width="211" y="0" height="211"/></clipPath><clipPath id="996283222f"><path d="M 36.773438 58.546875 L 173.804688 58.546875 L 173.804688 151.046875 L 36.773438 151.046875 Z M 36.773438 58.546875 " clip-rule="nonzero"/></clipPath><clipPath id="8fa122e4a4"><rect x="0" width="211" y="0" height="211"/></clipPath></defs><g transform="matrix(1, 0, 0, 1, 7, 7)"><g clip-path="url(#8fa122e4a4)"><g clip-path="url(#6543f0e619)"><g clip-path="url(#301ef9f9d1)"><g transform="matrix(1, 0, 0, 1, 0.000000000000000888, -0.000000000000002665)"><g clip-path="url(#2b8abd9288)"><g clip-path="url(#19f680ba37)"><g clip-path="url(#b53ad698e4)"><path fill="#bb0000" d="M 0.769531 0.828125 L 210.109375 0.828125 L 210.109375 210.171875 L 0.769531 210.171875 Z M 0.769531 0.828125 " fill-opacity="1" fill-rule="nonzero"/></g></g></g></g></g></g><g clip-path="url(#996283222f)"><path fill="#ffffff" d="M 168.246094 67.609375 C 164.527344 61.023438 160.488281 59.8125 152.273438 59.351562 C 144.0625 58.796875 123.417969 58.566406 105.535156 58.566406 C 87.621094 58.566406 66.96875 58.796875 58.765625 59.34375 C 50.566406 59.8125 46.425781 61.015625 42.671875 67.609375 C 38.839844 74.183594 36.773438 85.511719 36.773438 105.453125 L 36.773438 105.523438 C 36.773438 125.378906 38.839844 136.789062 42.671875 143.296875 C 46.421875 149.882812 50.507812 151.078125 58.710938 151.628906 C 66.917969 152.109375 87.59375 152.390625 105.511719 152.390625 C 123.394531 152.390625 144.046875 152.109375 152.265625 151.640625 C 160.484375 151.085938 164.527344 149.890625 168.246094 143.308594 C 172.109375 136.800781 174.074219 125.386719 174.074219 105.53125 L 174.074219 105.460938 C 174.074219 85.511719 172.117188 74.183594 168.246094 67.609375 Z M 88.261719 131.066406 L 88.261719 79.890625 L 131.101562 105.480469 Z M 88.261719 131.066406 " fill-opacity="1" fill-rule="nonzero"/></g></g></g></svg>