<svg xmlns="http://www.w3.org/2000/svg" xmlns:xlink="http://www.w3.org/1999/xlink" width="300" zoomAndPan="magnify" viewBox="0 0 224.87999 225" height="300" preserveAspectRatio="xMidYMid meet" version="1.0"><defs><clipPath id="90d83a26b5"><path d="M 6.089844 6.148438 L 218.976562 6.148438 L 218.976562 219.035156 L 6.089844 219.035156 Z M 6.089844 6.148438 " clip-rule="nonzero"/></clipPath></defs><g clip-path="url(#90d83a26b5)"><path fill="#000000" d="M 219.011719 112.609375 C 219.011719 114.351562 218.96875 116.09375 218.882812 117.835938 C 218.800781 119.574219 218.671875 121.3125 218.5 123.046875 C 218.328125 124.78125 218.117188 126.507812 217.859375 128.230469 C 217.605469 129.957031 217.308594 131.671875 216.96875 133.378906 C 216.628906 135.089844 216.246094 136.789062 215.824219 138.480469 C 215.398438 140.167969 214.933594 141.847656 214.429688 143.515625 C 213.921875 145.183594 213.375 146.835938 212.789062 148.476562 C 212.203125 150.117188 211.574219 151.742188 210.910156 153.351562 C 210.242188 154.960938 209.535156 156.554688 208.792969 158.128906 C 208.046875 159.703125 207.261719 161.261719 206.441406 162.796875 C 205.621094 164.332031 204.761719 165.847656 203.867188 167.34375 C 202.96875 168.835938 202.039062 170.308594 201.070312 171.757812 C 200.101562 173.207031 199.101562 174.628906 198.0625 176.03125 C 197.023438 177.429688 195.953125 178.804688 194.847656 180.148438 C 193.742188 181.496094 192.605469 182.816406 191.433594 184.105469 C 190.265625 185.398438 189.0625 186.660156 187.832031 187.890625 C 186.597656 189.121094 185.335938 190.324219 184.046875 191.492188 C 182.753906 192.664062 181.4375 193.800781 180.089844 194.90625 C 178.742188 196.011719 177.371094 197.085938 175.96875 198.121094 C 174.570312 199.160156 173.148438 200.164062 171.699219 201.132812 C 170.25 202.097656 168.777344 203.03125 167.285156 203.925781 C 165.789062 204.820312 164.273438 205.679688 162.738281 206.503906 C 161.199219 207.324219 159.644531 208.105469 158.070312 208.851562 C 156.496094 209.597656 154.902344 210.300781 153.292969 210.96875 C 151.683594 211.636719 150.058594 212.261719 148.417969 212.851562 C 146.777344 213.4375 145.121094 213.984375 143.457031 214.488281 C 141.789062 214.996094 140.109375 215.460938 138.417969 215.882812 C 136.730469 216.304688 135.03125 216.6875 133.320312 217.027344 C 131.613281 217.367188 129.894531 217.664062 128.171875 217.921875 C 126.449219 218.175781 124.71875 218.390625 122.984375 218.558594 C 121.253906 218.730469 119.515625 218.859375 117.773438 218.945312 C 116.035156 219.03125 114.292969 219.074219 112.550781 219.074219 C 110.808594 219.074219 109.066406 219.03125 107.328125 218.945312 C 105.585938 218.859375 103.851562 218.730469 102.117188 218.558594 C 100.382812 218.390625 98.652344 218.175781 96.929688 217.921875 C 95.207031 217.664062 93.488281 217.367188 91.78125 217.027344 C 90.074219 216.6875 88.371094 216.304688 86.683594 215.882812 C 84.992188 215.460938 83.3125 214.996094 81.648438 214.488281 C 79.980469 213.984375 78.324219 213.4375 76.683594 212.851562 C 75.042969 212.261719 73.417969 211.636719 71.808594 210.96875 C 70.199219 210.300781 68.609375 209.597656 67.03125 208.851562 C 65.457031 208.105469 63.902344 207.324219 62.363281 206.503906 C 60.828125 205.679688 59.3125 204.820312 57.820312 203.925781 C 56.324219 203.03125 54.851562 202.097656 53.402344 201.132812 C 51.953125 200.164062 50.53125 199.160156 49.132812 198.121094 C 47.730469 197.085938 46.359375 196.011719 45.011719 194.90625 C 43.664062 193.800781 42.347656 192.664062 41.054688 191.492188 C 39.765625 190.324219 38.503906 189.121094 37.269531 187.890625 C 36.039062 186.660156 34.835938 185.398438 33.667969 184.105469 C 32.496094 182.816406 31.359375 181.496094 30.253906 180.148438 C 29.148438 178.804688 28.078125 177.429688 27.039062 176.03125 C 26 174.628906 25 173.207031 24.03125 171.757812 C 23.0625 170.308594 22.132812 168.835938 21.234375 167.34375 C 20.339844 165.847656 19.480469 164.332031 18.660156 162.796875 C 17.839844 161.261719 17.054688 159.703125 16.308594 158.128906 C 15.566406 156.554688 14.859375 154.960938 14.191406 153.351562 C 13.527344 151.742188 12.898438 150.117188 12.3125 148.476562 C 11.726562 146.835938 11.179688 145.183594 10.671875 143.515625 C 10.167969 141.847656 9.703125 140.167969 9.28125 138.480469 C 8.855469 136.789062 8.472656 135.089844 8.132812 133.378906 C 7.792969 131.671875 7.496094 129.957031 7.242188 128.230469 C 6.984375 126.507812 6.773438 124.78125 6.601562 123.046875 C 6.429688 121.3125 6.300781 119.574219 6.21875 117.835938 C 6.132812 116.09375 6.089844 114.351562 6.089844 112.609375 C 6.089844 110.867188 6.132812 109.128906 6.21875 107.386719 C 6.300781 105.648438 6.429688 103.910156 6.601562 102.175781 C 6.773438 100.441406 6.984375 98.714844 7.242188 96.988281 C 7.496094 95.265625 7.792969 93.550781 8.132812 91.839844 C 8.472656 90.132812 8.855469 88.433594 9.28125 86.742188 C 9.703125 85.050781 10.167969 83.375 10.671875 81.707031 C 11.179688 80.039062 11.726562 78.386719 12.3125 76.746094 C 12.898438 75.105469 13.527344 73.480469 14.191406 71.871094 C 14.859375 70.261719 15.566406 68.667969 16.308594 67.09375 C 17.054688 65.515625 17.839844 63.960938 18.660156 62.425781 C 19.480469 60.886719 20.339844 59.371094 21.234375 57.878906 C 22.132812 56.382812 23.0625 54.914062 24.03125 53.464844 C 25 52.015625 26 50.589844 27.039062 49.191406 C 28.078125 47.792969 29.148438 46.417969 30.253906 45.070312 C 31.359375 43.726562 32.496094 42.40625 33.667969 41.117188 C 34.835938 39.824219 36.039062 38.5625 37.269531 37.332031 C 38.503906 36.097656 39.765625 34.898438 41.054688 33.726562 C 42.347656 32.558594 43.664062 31.417969 45.011719 30.316406 C 46.359375 29.210938 47.730469 28.136719 49.132812 27.101562 C 50.53125 26.0625 51.953125 25.058594 53.402344 24.089844 C 54.851562 23.121094 56.324219 22.191406 57.820312 21.296875 C 59.3125 20.398438 60.828125 19.542969 62.363281 18.71875 C 63.902344 17.898438 65.457031 17.117188 67.03125 16.371094 C 68.609375 15.625 70.199219 14.917969 71.808594 14.253906 C 73.417969 13.585938 75.042969 12.960938 76.683594 12.371094 C 78.324219 11.785156 79.980469 11.238281 81.648438 10.734375 C 83.3125 10.226562 84.992188 9.761719 86.683594 9.339844 C 88.371094 8.914062 90.074219 8.535156 91.78125 8.195312 C 93.488281 7.855469 95.207031 7.558594 96.929688 7.300781 C 98.652344 7.046875 100.382812 6.832031 102.117188 6.660156 C 103.851562 6.492188 105.585938 6.363281 107.328125 6.277344 C 109.066406 6.191406 110.808594 6.148438 112.550781 6.148438 C 114.292969 6.148438 116.035156 6.191406 117.773438 6.277344 C 119.515625 6.363281 121.253906 6.492188 122.984375 6.660156 C 124.71875 6.832031 126.449219 7.046875 128.171875 7.300781 C 129.894531 7.558594 131.613281 7.855469 133.320312 8.195312 C 135.03125 8.535156 136.730469 8.914062 138.417969 9.339844 C 140.109375 9.761719 141.789062 10.226562 143.457031 10.734375 C 145.121094 11.238281 146.777344 11.785156 148.417969 12.371094 C 150.058594 12.960938 151.683594 13.585938 153.292969 14.253906 C 154.902344 14.917969 156.496094 15.625 158.070312 16.371094 C 159.644531 17.117188 161.199219 17.898438 162.738281 18.71875 C 164.273438 19.542969 165.789062 20.398438 167.285156 21.296875 C 168.777344 22.191406 170.25 23.121094 171.699219 24.089844 C 173.148438 25.058594 174.570312 26.0625 175.96875 27.101562 C 177.371094 28.136719 178.742188 29.210938 180.089844 30.316406 C 181.4375 31.417969 182.753906 32.558594 184.046875 33.726562 C 185.335938 34.898438 186.597656 36.097656 187.832031 37.332031 C 189.0625 38.5625 190.265625 39.824219 191.433594 41.117188 C 192.605469 42.40625 193.742188 43.726562 194.847656 45.070312 C 195.953125 46.417969 197.023438 47.792969 198.0625 49.191406 C 199.101562 50.589844 200.101562 52.015625 201.070312 53.464844 C 202.039062 54.914062 202.96875 56.382812 203.867188 57.878906 C 204.761719 59.371094 205.621094 60.886719 206.441406 62.425781 C 207.261719 63.960938 208.046875 65.515625 208.792969 67.09375 C 209.535156 68.667969 210.242188 70.261719 210.910156 71.871094 C 211.574219 73.480469 212.203125 75.105469 212.789062 76.746094 C 213.375 78.386719 213.921875 80.039062 214.429688 81.707031 C 214.933594 83.375 215.398438 85.050781 215.824219 86.742188 C 216.246094 88.433594 216.628906 90.132812 216.96875 91.839844 C 217.308594 93.550781 217.605469 95.265625 217.859375 96.988281 C 218.117188 98.714844 218.328125 100.441406 218.5 102.175781 C 218.671875 103.910156 218.800781 105.648438 218.882812 107.386719 C 218.96875 109.128906 219.011719 110.867188 219.011719 112.609375 Z M 219.011719 112.609375 " fill-opacity="1" fill-rule="nonzero"/></g><path fill="#25f4ee" d="M 98.417969 97.390625 L 98.417969 91.617188 C 96.480469 91.351562 94.515625 91.191406 92.511719 91.191406 C 68.339844 91.191406 48.675781 110.851562 48.675781 135.023438 C 48.675781 149.855469 56.085938 162.976562 67.394531 170.917969 C 60.09375 163.082031 55.765625 152.589844 55.765625 141.066406 C 55.765625 117.242188 74.730469 97.941406 98.417969 97.390625 Z M 98.417969 97.390625 " fill-opacity="1" fill-rule="nonzero"/><path fill="#25f4ee" d="M 99.449219 161.210938 C 110.234375 161.210938 119.160156 152.503906 119.554688 141.820312 L 119.648438 46.503906 L 136.929688 46.503906 C 136.929688 46.503906 136.902344 46.371094 136.902344 46.371094 C 136.542969 44.414062 136.34375 42.390625 136.34375 40.332031 L 112.53125 40.332031 L 112.496094 135.78125 C 112.097656 146.472656 103.296875 155.046875 92.511719 155.046875 C 89.152344 155.046875 86.007812 154.203125 83.226562 152.75 C 86.867188 157.789062 92.773438 161.21875 99.457031 161.21875 Z M 99.449219 161.210938 " fill-opacity="1" fill-rule="nonzero"/><path fill="#25f4ee" d="M 169.488281 79.042969 L 169.488281 73.445312 C 162.832031 73.445312 156.640625 71.46875 151.441406 68.078125 C 156.0625 73.390625 162.351562 77.511719 169.488281 79.03125 Z M 169.488281 79.042969 " fill-opacity="1" fill-rule="nonzero"/><path fill="#fe2c55" d="M 151.441406 68.085938 C 146.375 62.261719 143.292969 54.671875 143.292969 46.363281 L 136.808594 46.363281 C 138.492188 55.4375 143.984375 63.226562 151.441406 68.085938 Z M 151.441406 68.085938 " fill-opacity="1" fill-rule="nonzero"/><path fill="#fe2c55" d="M 92.511719 114.8125 C 81.46875 114.8125 72.355469 123.972656 72.355469 135.015625 C 72.355469 142.699219 76.847656 149.382812 83.21875 152.738281 C 80.84375 149.449219 79.425781 145.421875 79.425781 141.066406 C 79.425781 130.023438 88.40625 121.042969 99.449219 121.042969 C 101.507812 121.042969 103.484375 121.382812 105.355469 121.96875 L 105.355469 97.65625 C 103.417969 97.390625 101.453125 97.230469 99.449219 97.230469 C 99.097656 97.230469 98.757812 97.25 98.417969 97.257812 L 98.324219 97.257812 C 98.324219 97.257812 98.257812 115.664062 98.257812 115.664062 C 96.386719 115.078125 94.570312 114.824219 92.511719 114.824219 Z M 92.511719 114.8125 " fill-opacity="1" fill-rule="nonzero"/><path fill="#fe2c55" d="M 169.488281 78.757812 L 169.375 78.738281 L 169.375 97.125 C 157.019531 97.125 145.542969 93.0625 136.203125 86.359375 L 136.203125 135.015625 C 136.203125 159.1875 116.683594 178.726562 92.511719 178.726562 C 83.171875 178.726562 74.511719 175.898438 67.382812 170.898438 C 75.390625 179.492188 86.800781 184.890625 99.449219 184.890625 C 123.621094 184.890625 143.285156 165.226562 143.285156 141.054688 L 143.285156 92.65625 C 152.625 99.359375 164.070312 103.308594 176.417969 103.308594 L 176.417969 79.496094 C 174.035156 79.496094 171.71875 79.242188 169.476562 78.757812 Z M 169.488281 78.757812 " fill-opacity="1" fill-rule="nonzero"/><path fill="#ffffff" d="M 136.34375 135.015625 L 136.34375 86.613281 C 145.683594 93.316406 157.132812 97.269531 169.476562 97.269531 L 169.476562 78.757812 C 162.339844 77.226562 156.0625 73.398438 151.433594 68.085938 C 143.972656 63.21875 138.585938 55.4375 136.902344 46.363281 L 119.460938 46.363281 L 119.421875 141.8125 C 119.027344 152.503906 110.226562 161.078125 99.4375 161.078125 C 92.757812 161.078125 86.847656 157.777344 83.207031 152.730469 C 76.835938 149.375 72.480469 142.699219 72.480469 135.003906 C 72.480469 123.964844 81.460938 114.984375 92.5 114.984375 C 94.5625 114.984375 96.539062 115.324219 98.410156 115.910156 L 98.410156 97.238281 C 74.710938 97.796875 55.605469 117.222656 55.605469 141.054688 C 55.605469 152.578125 60.085938 163.070312 67.375 170.910156 C 74.492188 175.910156 83.152344 178.847656 92.5 178.847656 C 116.671875 178.847656 136.335938 159.1875 136.335938 135.015625 Z M 136.34375 135.015625 " fill-opacity="1" fill-rule="nonzero"/></svg>