<svg xmlns="http://www.w3.org/2000/svg" xmlns:xlink="http://www.w3.org/1999/xlink" width="292" zoomAndPan="magnify" viewBox="0 0 218.87999 46.499999" height="62" preserveAspectRatio="xMidYMid meet" version="1.0"><defs><filter x="0%" y="0%" width="100%" height="100%" id="865a16b587"><feColorMatrix values="0 0 0 0 1 0 0 0 0 1 0 0 0 0 1 0 0 0 1 0" color-interpolation-filters="sRGB"/></filter><g/><clipPath id="11640783dd"><path d="M 5 0 L 217.65625 0 L 217.65625 46.003906 L 5 46.003906 Z M 5 0 " clip-rule="nonzero"/></clipPath><clipPath id="248ecd5fdd"><path d="M 0.675781 0 L 212.65625 0 L 212.65625 46.003906 L 0.675781 46.003906 Z M 0.675781 0 " clip-rule="nonzero"/></clipPath><clipPath id="de02f038f4"><path d="M 0.675781 0 L 212.65625 0 L 212.65625 46.003906 L 0.675781 46.003906 Z M 0.675781 0 " clip-rule="nonzero"/></clipPath><clipPath id="6404bb2f66"><path d="M 4.109375 0 L 212.65625 0 L 212.65625 46.003906 L 4.109375 46.003906 Z M 4.109375 0 " clip-rule="nonzero"/></clipPath><linearGradient x1="66.258003" gradientTransform="matrix(1.141032, 0, 0, 1.152408, 43.438079, 20.323597)" y1="-17.635769" x2="66.258003" gradientUnits="userSpaceOnUse" y2="22.28527" id="e42be68b24"><stop stop-opacity="1" stop-color="rgb(100%, 62.748718%, 0%)" offset="0"/><stop stop-opacity="1" stop-color="rgb(100%, 62.748718%, 0%)" offset="0.25"/><stop stop-opacity="1" stop-color="rgb(99.95575%, 62.632751%, 0%)" offset="0.3125"/><stop stop-opacity="1" stop-color="rgb(99.848938%, 62.34436%, 0%)" offset="0.34375"/><stop stop-opacity="1" stop-color="rgb(99.72229%, 61.999512%, 0%)" offset="0.375"/><stop stop-opacity="1" stop-color="rgb(99.595642%, 61.656189%, 0%)" offset="0.40625"/><stop stop-opacity="1" stop-color="rgb(99.468994%, 61.31134%, 0%)" offset="0.4375"/><stop stop-opacity="1" stop-color="rgb(99.34082%, 60.966492%, 0%)" offset="0.46875"/><stop stop-opacity="1" stop-color="rgb(99.214172%, 60.621643%, 0%)" offset="0.5"/><stop stop-opacity="1" stop-color="rgb(99.087524%, 60.276794%, 0%)" offset="0.53125"/><stop stop-opacity="1" stop-color="rgb(98.960876%, 59.931946%, 0%)" offset="0.5625"/><stop stop-opacity="1" stop-color="rgb(98.832703%, 59.587097%, 0%)" offset="0.59375"/><stop stop-opacity="1" stop-color="rgb(98.706055%, 59.242249%, 0%)" offset="0.625"/><stop stop-opacity="1" stop-color="rgb(98.579407%, 58.8974%, 0%)" offset="0.65625"/><stop stop-opacity="1" stop-color="rgb(98.451233%, 58.552551%, 0%)" offset="0.6875"/><stop stop-opacity="1" stop-color="rgb(98.324585%, 58.209229%, 0%)" offset="0.71875"/><stop stop-opacity="1" stop-color="rgb(98.197937%, 57.86438%, 0%)" offset="0.75"/><stop stop-opacity="1" stop-color="rgb(98.071289%, 57.519531%, 0%)" offset="0.78125"/><stop stop-opacity="1" stop-color="rgb(97.943115%, 57.174683%, 0%)" offset="0.8125"/><stop stop-opacity="1" stop-color="rgb(97.816467%, 56.829834%, 0%)" offset="0.84375"/><stop stop-opacity="1" stop-color="rgb(97.689819%, 56.484985%, 0%)" offset="0.875"/><stop stop-opacity="1" stop-color="rgb(97.563171%, 56.140137%, 0%)" offset="0.90625"/><stop stop-opacity="1" stop-color="rgb(97.434998%, 55.795288%, 0%)" offset="0.9375"/><stop stop-opacity="1" stop-color="rgb(97.309875%, 55.455017%, 0%)" offset="1"/></linearGradient><clipPath id="016c8a0384"><rect x="0" width="213" y="0" height="47"/></clipPath><clipPath id="4df13181c2"><path d="M 0.675781 0 L 212.65625 0 L 212.65625 46.003906 L 0.675781 46.003906 Z M 0.675781 0 " clip-rule="nonzero"/></clipPath><clipPath id="c6402f6da8"><rect x="0" width="213" y="0" height="47"/></clipPath><clipPath id="1894f5003b"><rect x="0" width="213" y="0" height="47"/></clipPath><mask id="b4de307b6f"><g filter="url(#865a16b587)"><g><g clip-path="url(#1894f5003b)"><g clip-path="url(#4df13181c2)"><g><g clip-path="url(#c6402f6da8)"><g fill="#000000" fill-opacity="1"><g transform="translate(45.491419, 36.426205)"><g><path d="M 5.078125 0.171875 C 3.441406 0.171875 2.257812 -0.234375 1.53125 -1.046875 C 0.800781 -1.859375 0.4375 -3.164062 0.4375 -4.96875 L 0.4375 -6.71875 L 3.984375 -6.71875 L 3.984375 -4.484375 C 3.984375 -3.585938 4.269531 -3.140625 4.84375 -3.140625 C 5.164062 -3.140625 5.390625 -3.234375 5.515625 -3.421875 C 5.640625 -3.609375 5.703125 -3.925781 5.703125 -4.375 C 5.703125 -4.96875 5.628906 -5.453125 5.484375 -5.828125 C 5.347656 -6.210938 5.171875 -6.535156 4.953125 -6.796875 C 4.734375 -7.054688 4.347656 -7.457031 3.796875 -8 L 2.234375 -9.546875 C 1.035156 -10.722656 0.4375 -12.023438 0.4375 -13.453125 C 0.4375 -14.984375 0.789062 -16.148438 1.5 -16.953125 C 2.207031 -17.765625 3.238281 -18.171875 4.59375 -18.171875 C 6.207031 -18.171875 7.367188 -17.738281 8.078125 -16.875 C 8.796875 -16.019531 9.15625 -14.675781 9.15625 -12.84375 L 5.484375 -12.84375 L 5.46875 -14.078125 C 5.46875 -14.316406 5.398438 -14.503906 5.265625 -14.640625 C 5.140625 -14.785156 4.957031 -14.859375 4.71875 -14.859375 C 4.4375 -14.859375 4.222656 -14.78125 4.078125 -14.625 C 3.941406 -14.46875 3.875 -14.257812 3.875 -14 C 3.875 -13.40625 4.207031 -12.796875 4.875 -12.171875 L 6.984375 -10.15625 C 7.460938 -9.6875 7.863281 -9.238281 8.1875 -8.8125 C 8.507812 -8.382812 8.769531 -7.878906 8.96875 -7.296875 C 9.164062 -6.722656 9.265625 -6.035156 9.265625 -5.234375 C 9.265625 -3.460938 8.9375 -2.117188 8.28125 -1.203125 C 7.632812 -0.285156 6.566406 0.171875 5.078125 0.171875 Z M 5.078125 0.171875 "/></g></g></g><g fill="#000000" fill-opacity="1"><g transform="translate(55.145929, 36.426205)"><g><path d="M 0.3125 0 L 2.046875 -18 L 8.15625 -18 L 9.875 0 L 6.453125 0 L 6.203125 -2.90625 L 4.015625 -2.90625 L 3.8125 0 Z M 4.296875 -5.78125 L 5.9375 -5.78125 L 5.140625 -14.9375 L 4.96875 -14.9375 Z M 3.6875 -20.0625 C 4.09375 -20.21875 4.398438 -20.394531 4.609375 -20.59375 C 4.828125 -20.800781 4.9375 -21.066406 4.9375 -21.390625 C 4.9375 -22.035156 4.585938 -22.359375 3.890625 -22.359375 C 3.546875 -22.359375 3.238281 -22.304688 2.96875 -22.203125 L 2.96875 -24.046875 C 3.59375 -24.273438 4.21875 -24.390625 4.84375 -24.390625 C 5.695312 -24.390625 6.363281 -24.171875 6.84375 -23.734375 C 7.332031 -23.296875 7.578125 -22.695312 7.578125 -21.9375 C 7.578125 -20.414062 6.644531 -19.367188 4.78125 -18.796875 Z M 3.6875 -20.0625 "/></g></g></g><g fill="#000000" fill-opacity="1"><g transform="translate(65.303059, 36.426205)"><g><path d="M 0.796875 0 L 0.796875 -18 L 4.5 -18 L 6.15625 -9.390625 L 6.15625 -18 L 9.640625 -18 L 9.640625 0 L 6.125 0 L 4.3125 -9.015625 L 4.3125 0 Z M 0.796875 0 "/></g></g></g><g fill="#000000" fill-opacity="1"><g transform="translate(75.732431, 36.426205)"><g/></g></g><g fill="#000000" fill-opacity="1"><g transform="translate(80.632977, 36.426205)"><g><path d="M 0.796875 -18 L 5.546875 -18 C 6.984375 -18 8.007812 -17.535156 8.625 -16.609375 C 9.238281 -15.679688 9.546875 -14.320312 9.546875 -12.53125 C 9.546875 -10.738281 9.273438 -9.390625 8.734375 -8.484375 C 8.191406 -7.578125 7.210938 -7.125 5.796875 -7.125 L 4.34375 -7.125 L 4.34375 0 L 0.796875 0 Z M 4.546875 -10.375 C 4.984375 -10.375 5.300781 -10.453125 5.5 -10.609375 C 5.695312 -10.773438 5.828125 -11.003906 5.890625 -11.296875 C 5.960938 -11.597656 6 -12.03125 6 -12.59375 C 6 -13.34375 5.910156 -13.882812 5.734375 -14.21875 C 5.566406 -14.5625 5.234375 -14.734375 4.734375 -14.734375 L 4.34375 -14.734375 L 4.34375 -10.375 Z M 4.546875 -10.375 "/></g></g></g><g fill="#000000" fill-opacity="1"><g transform="translate(90.517848, 36.426205)"><g><path d="M 0.796875 0 L 0.796875 -18 L 4.375 -18 L 4.375 -11.5625 L 6.078125 -11.5625 L 6.078125 -18 L 9.65625 -18 L 9.65625 0 L 6.078125 0 L 6.078125 -8.171875 L 4.375 -8.171875 L 4.375 0 Z M 0.796875 0 "/></g></g></g><g fill="#000000" fill-opacity="1"><g transform="translate(100.968161, 36.426205)"><g><path d="M 0.3125 0 L 2.046875 -18 L 8.15625 -18 L 9.875 0 L 6.453125 0 L 6.203125 -2.90625 L 4.015625 -2.90625 L 3.8125 0 Z M 4.296875 -5.78125 L 5.9375 -5.78125 L 5.140625 -14.9375 L 4.96875 -14.9375 Z M 8.171875 -20.828125 C 8.691406 -21.003906 8.953125 -21.285156 8.953125 -21.671875 C 8.953125 -22.066406 8.738281 -22.265625 8.3125 -22.265625 C 8.113281 -22.265625 7.921875 -22.234375 7.734375 -22.171875 L 7.734375 -23.296875 C 8.117188 -23.453125 8.507812 -23.53125 8.90625 -23.53125 C 9.4375 -23.53125 9.847656 -23.394531 10.140625 -23.125 C 10.441406 -22.851562 10.59375 -22.476562 10.59375 -22 C 10.59375 -21.039062 10.019531 -20.390625 8.875 -20.046875 Z M 1.140625 -18.796875 L 3.5625 -21.421875 L 6.59375 -21.421875 L 9.015625 -18.796875 L 6.078125 -18.8125 L 5.078125 -20.203125 L 4.078125 -18.8125 Z M 1.140625 -18.796875 "/></g></g></g><g fill="#000000" fill-opacity="1"><g transform="translate(111.125291, 36.426205)"><g><path d="M 0.796875 0 L 0.796875 -18 L 6.28125 -18 L 7.796875 -7.015625 L 9.296875 -18 L 14.828125 -18 L 14.828125 0 L 11.546875 0 L 11.546875 -12.96875 L 9.46875 0 L 6.25 0 L 4.046875 -12.96875 L 4.046875 0 Z M 0.796875 0 "/></g></g></g><g fill="#000000" fill-opacity="1"><g transform="translate(126.748409, 36.426205)"><g/></g></g><g fill="#000000" fill-opacity="1"><g transform="translate(131.648955, 36.426205)"><g><path d="M 0.796875 0 L 0.796875 -18 L 4.5 -18 L 6.15625 -9.390625 L 6.15625 -18 L 9.640625 -18 L 9.640625 0 L 6.125 0 L 4.3125 -9.015625 L 4.3125 0 Z M 0.796875 0 "/></g></g></g><g fill="#000000" fill-opacity="1"><g transform="translate(142.078327, 36.426205)"><g><path d="M 5.09375 0.171875 C 3.632812 0.171875 2.53125 -0.269531 1.78125 -1.15625 C 1.03125 -2.050781 0.65625 -3.300781 0.65625 -4.90625 L 0.65625 -13.46875 C 0.65625 -15.019531 1.03125 -16.191406 1.78125 -16.984375 C 2.53125 -17.773438 3.632812 -18.171875 5.09375 -18.171875 C 6.539062 -18.171875 7.640625 -17.773438 8.390625 -16.984375 C 9.148438 -16.191406 9.53125 -15.019531 9.53125 -13.46875 L 9.53125 -4.90625 C 9.53125 -3.28125 9.148438 -2.023438 8.390625 -1.140625 C 7.640625 -0.265625 6.539062 0.171875 5.09375 0.171875 Z M 5.09375 -3.140625 C 5.414062 -3.140625 5.628906 -3.28125 5.734375 -3.5625 C 5.847656 -3.84375 5.90625 -4.234375 5.90625 -4.734375 L 5.90625 -13.53125 C 5.90625 -13.925781 5.851562 -14.242188 5.75 -14.484375 C 5.644531 -14.734375 5.429688 -14.859375 5.109375 -14.859375 C 4.515625 -14.859375 4.21875 -14.40625 4.21875 -13.5 L 4.21875 -4.71875 C 4.21875 -4.195312 4.28125 -3.800781 4.40625 -3.53125 C 4.53125 -3.269531 4.757812 -3.140625 5.09375 -3.140625 Z M 8.1875 -20.828125 C 8.707031 -21.003906 8.96875 -21.285156 8.96875 -21.671875 C 8.96875 -22.066406 8.753906 -22.265625 8.328125 -22.265625 C 8.128906 -22.265625 7.9375 -22.234375 7.75 -22.171875 L 7.75 -23.296875 C 8.132812 -23.453125 8.523438 -23.53125 8.921875 -23.53125 C 9.453125 -23.53125 9.863281 -23.394531 10.15625 -23.125 C 10.457031 -22.851562 10.609375 -22.476562 10.609375 -22 C 10.609375 -21.039062 10.035156 -20.390625 8.890625 -20.046875 Z M 1.15625 -18.796875 L 3.578125 -21.421875 L 6.609375 -21.421875 L 9.03125 -18.796875 L 6.09375 -18.8125 L 5.09375 -20.203125 L 4.09375 -18.8125 Z M 1.15625 -18.796875 "/></g></g></g><g fill="#000000" fill-opacity="1"><g transform="translate(152.256397, 36.426205)"><g><path d="M 0.625 0 L 0.625 -18 L 4.109375 -18 L 4.109375 0 Z M 0.625 0 "/></g></g></g><g fill="#000000" fill-opacity="1"><g transform="translate(157.010344, 36.426205)"><g/></g></g><g fill="#000000" fill-opacity="1"><g transform="translate(161.91089, 36.426205)"><g><path d="M 0.796875 -18 L 5.671875 -18 C 6.984375 -18 7.9375 -17.675781 8.53125 -17.03125 C 9.125 -16.394531 9.421875 -15.347656 9.421875 -13.890625 L 9.421875 -13.09375 C 9.421875 -11.375 8.804688 -10.347656 7.578125 -10.015625 C 8.335938 -9.816406 8.867188 -9.359375 9.171875 -8.640625 C 9.484375 -7.929688 9.640625 -6.992188 9.640625 -5.828125 C 9.640625 -3.910156 9.351562 -2.457031 8.78125 -1.46875 C 8.207031 -0.488281 7.171875 0 5.671875 0 L 0.796875 0 Z M 5.046875 -11.234375 C 5.359375 -11.234375 5.566406 -11.347656 5.671875 -11.578125 C 5.785156 -11.804688 5.84375 -12.128906 5.84375 -12.546875 L 5.84375 -14.359375 C 5.84375 -14.941406 5.585938 -15.234375 5.078125 -15.234375 L 4.3125 -15.234375 L 4.3125 -11.234375 Z M 4.671875 -3.15625 C 5.609375 -3.15625 6.078125 -3.601562 6.078125 -4.5 L 6.078125 -6.75 C 6.078125 -7.289062 5.992188 -7.703125 5.828125 -7.984375 C 5.671875 -8.265625 5.390625 -8.40625 4.984375 -8.40625 L 4.3125 -8.40625 L 4.3125 -3.1875 Z M 4.671875 -3.15625 "/></g></g></g><g fill="#000000" fill-opacity="1"><g transform="translate(171.942361, 36.426205)"><g><path d="M 0.3125 0 L 2.046875 -18 L 8.15625 -18 L 9.875 0 L 6.453125 0 L 6.203125 -2.90625 L 4.015625 -2.90625 L 3.8125 0 Z M 4.296875 -5.78125 L 5.9375 -5.78125 L 5.140625 -14.9375 L 4.96875 -14.9375 Z M 3.265625 4.078125 L 3.265625 1.015625 L 6.9375 1.015625 L 6.9375 4.078125 Z M 0.53125 -19.046875 L 2.984375 -22.4375 L 7.171875 -22.4375 L 9.625 -19.046875 L 5.953125 -19.046875 L 5.078125 -21.234375 L 4.203125 -19.046875 Z M 0.53125 -19.046875 "/></g></g></g><g fill="#000000" fill-opacity="1"><g transform="translate(182.099491, 36.426205)"><g><path d="M 4.984375 0.171875 C 3.671875 0.171875 2.617188 -0.238281 1.828125 -1.0625 C 1.046875 -1.894531 0.65625 -3.03125 0.65625 -4.46875 L 0.65625 -12.765625 C 0.65625 -14.546875 1.007812 -15.890625 1.71875 -16.796875 C 2.425781 -17.710938 3.546875 -18.171875 5.078125 -18.171875 C 6.398438 -18.171875 7.460938 -17.804688 8.265625 -17.078125 C 9.078125 -16.347656 9.484375 -15.300781 9.484375 -13.9375 L 9.484375 -10.828125 L 5.90625 -10.828125 L 5.90625 -13.5 C 5.90625 -14.007812 5.84375 -14.363281 5.71875 -14.5625 C 5.59375 -14.757812 5.378906 -14.859375 5.078125 -14.859375 C 4.753906 -14.859375 4.53125 -14.742188 4.40625 -14.515625 C 4.289062 -14.296875 4.234375 -13.96875 4.234375 -13.53125 L 4.234375 -4.5 C 4.234375 -4.03125 4.300781 -3.6875 4.4375 -3.46875 C 4.582031 -3.25 4.796875 -3.140625 5.078125 -3.140625 C 5.628906 -3.140625 5.90625 -3.59375 5.90625 -4.5 L 5.90625 -7.75 L 9.53125 -7.75 L 9.53125 -4.359375 C 9.53125 -1.335938 8.015625 0.171875 4.984375 0.171875 Z M 4.984375 0.171875 "/></g></g></g></g></g></g></g></g></g></mask><clipPath id="5e778c9869"><path d="M 4.109375 0 L 212.65625 0 L 212.65625 46.003906 L 4.109375 46.003906 Z M 4.109375 0 " clip-rule="nonzero"/></clipPath><clipPath id="88dabc1a73"><rect x="0" width="213" y="0" height="47"/></clipPath><clipPath id="bb3ae83894"><rect x="0" width="213" y="0" height="47"/></clipPath><clipPath id="ff5d767f0f"><rect x="0" width="213" y="0" height="47"/></clipPath><clipPath id="583783ed80"><path d="M 31 4.601562 L 34 4.601562 L 34 14 L 31 14 Z M 31 4.601562 " clip-rule="nonzero"/></clipPath><clipPath id="0afa6a3eda"><path d="M 20 8 L 48 8 L 48 41.703125 L 20 41.703125 Z M 20 8 " clip-rule="nonzero"/></clipPath></defs><g clip-path="url(#11640783dd)"><g transform="matrix(1, 0, 0, 1, 5, 0)"><g clip-path="url(#ff5d767f0f)"><g fill="#e2fff2" fill-opacity="1"><g transform="translate(45.491419, 36.426205)"><g><path d="M 5.070312 0.3125 C 3.394531 0.3125 2.175781 -0.109375 1.421875 -0.953125 C 0.671875 -1.789062 0.296875 -3.125 0.296875 -4.964844 L 0.296875 -6.871094 L 4.125 -6.871094 L 4.125 -4.484375 C 4.125 -3.6875 4.363281 -3.285156 4.839844 -3.285156 C 5.109375 -3.285156 5.292969 -3.359375 5.390625 -3.503906 C 5.5 -3.667969 5.554688 -3.960938 5.554688 -4.378906 C 5.554688 -4.949219 5.488281 -5.417969 5.355469 -5.785156 C 5.21875 -6.152344 5.050781 -6.460938 4.84375 -6.707031 C 4.632812 -6.960938 4.246094 -7.359375 3.691406 -7.898438 L 2.140625 -9.453125 C 0.910156 -10.652344 0.296875 -11.984375 0.296875 -13.449219 C 0.296875 -15.023438 0.660156 -16.226562 1.390625 -17.054688 C 2.125 -17.890625 3.191406 -18.308594 4.589844 -18.308594 C 6.253906 -18.308594 7.457031 -17.863281 8.199219 -16.96875 C 8.933594 -16.082031 9.300781 -14.707031 9.300781 -12.84375 L 9.300781 -12.699219 L 5.347656 -12.699219 L 5.324219 -14.078125 C 5.324219 -14.277344 5.269531 -14.433594 5.164062 -14.546875 C 5.058594 -14.65625 4.910156 -14.710938 4.714844 -14.710938 C 4.476562 -14.710938 4.304688 -14.648438 4.191406 -14.527344 C 4.078125 -14.402344 4.019531 -14.222656 4.019531 -13.996094 C 4.019531 -13.449219 4.339844 -12.878906 4.980469 -12.277344 L 7.078125 -10.265625 C 7.570312 -9.785156 7.980469 -9.328125 8.308594 -8.898438 C 8.636719 -8.457031 8.902344 -7.941406 9.105469 -7.347656 C 9.304688 -6.753906 9.40625 -6.050781 9.40625 -5.238281 C 9.40625 -3.433594 9.070312 -2.0625 8.402344 -1.121094 C 7.726562 -0.164062 6.613281 0.3125 5.070312 0.3125 Z M 5.070312 0.0234375 C 6.515625 0.0234375 7.546875 -0.414062 8.167969 -1.289062 C 8.800781 -2.179688 9.117188 -3.496094 9.117188 -5.238281 C 9.117188 -6.019531 9.019531 -6.691406 8.832031 -7.253906 C 8.640625 -7.820312 8.390625 -8.308594 8.078125 -8.722656 C 7.761719 -9.144531 7.359375 -9.589844 6.875 -10.058594 L 4.78125 -12.066406 C 4.082031 -12.722656 3.730469 -13.367188 3.730469 -13.996094 C 3.730469 -14.296875 3.8125 -14.539062 3.980469 -14.722656 C 4.148438 -14.90625 4.390625 -15 4.714844 -15 C 4.992188 -15 5.210938 -14.914062 5.375 -14.742188 C 5.53125 -14.578125 5.613281 -14.355469 5.613281 -14.082031 L 5.632812 -12.84375 L 5.488281 -12.84375 L 5.488281 -12.988281 L 9.15625 -12.988281 L 9.15625 -12.84375 L 9.011719 -12.84375 C 9.011719 -14.636719 8.667969 -15.953125 7.976562 -16.785156 C 7.292969 -17.609375 6.164062 -18.019531 4.589844 -18.019531 C 3.277344 -18.019531 2.28125 -17.636719 1.605469 -16.863281 C 0.925781 -16.089844 0.585938 -14.949219 0.585938 -13.449219 C 0.585938 -12.066406 1.171875 -10.800781 2.34375 -9.65625 L 3.894531 -8.105469 C 4.453125 -7.558594 4.847656 -7.152344 5.066406 -6.890625 C 5.292969 -6.621094 5.480469 -6.285156 5.625 -5.882812 C 5.769531 -5.484375 5.84375 -4.980469 5.84375 -4.378906 C 5.84375 -3.902344 5.773438 -3.558594 5.628906 -3.34375 C 5.476562 -3.113281 5.210938 -3 4.839844 -3 C 4.5 -3 4.246094 -3.132812 4.074219 -3.398438 C 3.914062 -3.648438 3.835938 -4.007812 3.835938 -4.484375 L 3.835938 -6.726562 L 3.980469 -6.726562 L 3.980469 -6.582031 L 0.441406 -6.582031 L 0.441406 -6.726562 L 0.585938 -6.726562 L 0.585938 -4.964844 C 0.585938 -3.199219 0.933594 -1.925781 1.636719 -1.144531 C 2.335938 -0.367188 3.480469 0.0234375 5.070312 0.0234375 Z M 5.070312 0.0234375 "/></g></g></g><g fill="#e2fff2" fill-opacity="1"><g transform="translate(55.145929, 36.426205)"><g><path d="M 0.171875 -0.015625 L 1.921875 -18.140625 L 8.28125 -18.140625 L 10.027344 0.144531 L 6.320312 0.144531 L 6.058594 -2.898438 L 6.203125 -2.914062 L 6.203125 -2.769531 L 4.023438 -2.769531 L 4.023438 -2.914062 L 4.167969 -2.902344 L 3.945312 0.144531 L 0.15625 0.144531 Z M 0.457031 0.015625 L 0.3125 0 L 0.3125 -0.144531 L 3.8125 -0.144531 L 3.8125 0 L 3.667969 -0.0117188 L 3.886719 -3.054688 L 6.332031 -3.054688 L 6.597656 -0.0117188 L 6.453125 0 L 6.453125 -0.144531 L 9.867188 -0.144531 L 9.867188 0 L 9.722656 0.015625 L 8.007812 -17.984375 L 8.148438 -17.996094 L 8.148438 -17.851562 L 2.054688 -17.851562 L 2.054688 -17.996094 L 2.195312 -17.984375 Z M 4.296875 -5.925781 L 5.929688 -5.925781 L 5.929688 -5.78125 L 5.785156 -5.769531 L 4.988281 -14.925781 L 5.132812 -14.9375 L 5.132812 -14.792969 L 4.964844 -14.792969 L 4.964844 -14.9375 L 5.109375 -14.925781 L 4.4375 -5.773438 L 4.296875 -5.78125 Z M 4.140625 -5.636719 L 4.832031 -15.082031 L 5.265625 -15.082031 L 6.085938 -5.636719 Z M 3.636719 -20.207031 C 4.023438 -20.351562 4.3125 -20.519531 4.507812 -20.710938 C 4.6875 -20.882812 4.78125 -21.109375 4.78125 -21.390625 C 4.78125 -21.671875 4.707031 -21.875 4.5625 -22.007812 C 4.417969 -22.144531 4.1875 -22.210938 3.875 -22.210938 C 3.558594 -22.210938 3.265625 -22.164062 3 -22.070312 L 2.808594 -22.003906 L 2.808594 -24.152344 L 2.90625 -24.1875 C 3.550781 -24.417969 4.195312 -24.53125 4.839844 -24.53125 C 5.730469 -24.53125 6.425781 -24.300781 6.9375 -23.84375 C 7.449219 -23.382812 7.707031 -22.746094 7.707031 -21.9375 C 7.707031 -20.34375 6.746094 -19.25 4.820312 -18.65625 L 4.730469 -18.628906 L 3.445312 -20.132812 Z M 3.738281 -19.9375 L 3.6875 -20.070312 L 3.796875 -20.164062 L 4.886719 -18.886719 L 4.777344 -18.792969 L 4.734375 -18.929688 C 6.523438 -19.484375 7.417969 -20.484375 7.417969 -21.9375 C 7.417969 -22.660156 7.195312 -23.226562 6.746094 -23.628906 C 6.289062 -24.039062 5.65625 -24.242188 4.839844 -24.242188 C 4.226562 -24.242188 3.617188 -24.132812 3.003906 -23.917969 L 2.953125 -24.050781 L 3.097656 -24.050781 L 3.097656 -22.207031 L 2.953125 -22.207031 L 2.90625 -22.34375 C 3.203125 -22.449219 3.523438 -22.5 3.875 -22.5 C 4.261719 -22.5 4.558594 -22.40625 4.757812 -22.21875 C 4.964844 -22.03125 5.066406 -21.753906 5.066406 -21.390625 C 5.066406 -21.027344 4.949219 -20.734375 4.710938 -20.5 C 4.484375 -20.285156 4.160156 -20.097656 3.738281 -19.9375 Z M 3.738281 -19.9375 "/></g></g></g><g fill="#e2fff2" fill-opacity="1"><g transform="translate(65.303059, 36.426205)"><g><path d="M 0.652344 0 L 0.652344 -18.140625 L 4.625 -18.140625 L 6.300781 -9.414062 L 6.160156 -9.386719 L 6.015625 -9.386719 L 6.015625 -18.140625 L 9.78125 -18.140625 L 9.78125 0.144531 L 6 0.144531 L 4.175781 -8.980469 L 4.316406 -9.007812 L 4.460938 -9.007812 L 4.460938 0.144531 L 0.652344 0.144531 Z M 0.941406 0 L 0.796875 0 L 0.796875 -0.144531 L 4.316406 -0.144531 L 4.316406 0 L 4.171875 0 L 4.171875 -9.007812 L 4.457031 -9.039062 L 6.257812 -0.0273438 L 6.117188 0 L 6.117188 -0.144531 L 9.636719 -0.144531 L 9.636719 0 L 9.492188 0 L 9.492188 -17.996094 L 9.636719 -17.996094 L 9.636719 -17.851562 L 6.160156 -17.851562 L 6.160156 -17.996094 L 6.304688 -17.996094 L 6.304688 -9.386719 L 6.019531 -9.359375 L 4.363281 -17.96875 L 4.503906 -17.996094 L 4.503906 -17.851562 L 0.796875 -17.851562 L 0.796875 -17.996094 L 0.941406 -17.996094 Z M 0.941406 0 "/></g></g></g><g fill="#e2fff2" fill-opacity="1"><g transform="translate(75.732431, 36.426205)"><g/></g></g><g fill="#e2fff2" fill-opacity="1"><g transform="translate(80.632977, 36.426205)"><g><path d="M 0.796875 -18.140625 L 5.550781 -18.140625 C 7.042969 -18.140625 8.109375 -17.65625 8.753906 -16.683594 C 9.382812 -15.730469 9.699219 -14.34375 9.699219 -12.527344 C 9.699219 -10.714844 9.417969 -9.339844 8.859375 -8.410156 C 8.289062 -7.457031 7.269531 -6.980469 5.804688 -6.980469 L 4.335938 -6.980469 L 4.335938 -7.125 L 4.480469 -7.125 L 4.480469 0.144531 L 0.652344 0.144531 L 0.652344 -18.140625 Z M 0.796875 -17.851562 L 0.796875 -17.996094 L 0.941406 -17.996094 L 0.941406 0 L 0.796875 0 L 0.796875 -0.144531 L 4.335938 -0.144531 L 4.335938 0 L 4.191406 0 L 4.191406 -7.265625 L 5.804688 -7.265625 C 7.160156 -7.265625 8.097656 -7.699219 8.613281 -8.558594 C 9.144531 -9.445312 9.410156 -10.765625 9.410156 -12.527344 C 9.410156 -14.289062 9.109375 -15.621094 8.511719 -16.523438 C 7.925781 -17.410156 6.9375 -17.851562 5.550781 -17.851562 Z M 4.546875 -10.515625 C 4.945312 -10.515625 5.234375 -10.585938 5.410156 -10.726562 C 5.585938 -10.863281 5.699219 -11.066406 5.757812 -11.332031 C 5.816406 -11.625 5.847656 -12.042969 5.847656 -12.589844 C 5.847656 -13.324219 5.769531 -13.847656 5.613281 -14.160156 C 5.46875 -14.445312 5.179688 -14.585938 4.734375 -14.585938 L 4.335938 -14.585938 L 4.335938 -14.730469 L 4.480469 -14.730469 L 4.480469 -10.371094 L 4.335938 -10.371094 L 4.335938 -10.515625 Z M 4.546875 -10.226562 L 4.191406 -10.226562 L 4.191406 -14.871094 L 4.734375 -14.871094 C 5.296875 -14.871094 5.675781 -14.679688 5.871094 -14.289062 C 6.046875 -13.933594 6.136719 -13.367188 6.136719 -12.589844 C 6.136719 -12.023438 6.105469 -11.582031 6.039062 -11.273438 C 5.96875 -10.9375 5.820312 -10.679688 5.589844 -10.5 C 5.359375 -10.316406 5.011719 -10.226562 4.546875 -10.226562 Z M 4.546875 -10.226562 "/></g></g></g><g fill="#e2fff2" fill-opacity="1"><g transform="translate(90.517848, 36.426205)"><g><path d="M 0.652344 0 L 0.652344 -18.140625 L 4.523438 -18.140625 L 4.523438 -11.566406 L 4.378906 -11.566406 L 4.378906 -11.710938 L 6.074219 -11.710938 L 6.074219 -11.566406 L 5.933594 -11.566406 L 5.933594 -18.140625 L 9.800781 -18.140625 L 9.800781 0.144531 L 5.933594 0.144531 L 5.933594 -8.171875 L 6.074219 -8.171875 L 6.074219 -8.027344 L 4.378906 -8.027344 L 4.378906 -8.171875 L 4.523438 -8.171875 L 4.523438 0.144531 L 0.652344 0.144531 Z M 0.941406 0 L 0.796875 0 L 0.796875 -0.144531 L 4.378906 -0.144531 L 4.378906 0 L 4.234375 0 L 4.234375 -8.316406 L 6.21875 -8.316406 L 6.21875 0 L 6.074219 0 L 6.074219 -0.144531 L 9.660156 -0.144531 L 9.660156 0 L 9.515625 0 L 9.515625 -17.996094 L 9.660156 -17.996094 L 9.660156 -17.851562 L 6.074219 -17.851562 L 6.074219 -17.996094 L 6.21875 -17.996094 L 6.21875 -11.421875 L 4.234375 -11.421875 L 4.234375 -17.996094 L 4.378906 -17.996094 L 4.378906 -17.851562 L 0.796875 -17.851562 L 0.796875 -17.996094 L 0.941406 -17.996094 Z M 0.941406 0 "/></g></g></g><g fill="#e2fff2" fill-opacity="1"><g transform="translate(100.968161, 36.426205)"><g><path d="M 0.171875 -0.015625 L 1.921875 -18.140625 L 8.28125 -18.140625 L 10.027344 0.144531 L 6.320312 0.144531 L 6.058594 -2.898438 L 6.203125 -2.914062 L 6.203125 -2.769531 L 4.023438 -2.769531 L 4.023438 -2.914062 L 4.167969 -2.902344 L 3.945312 0.144531 L 0.15625 0.144531 Z M 0.457031 0.015625 L 0.3125 0 L 0.3125 -0.144531 L 3.8125 -0.144531 L 3.8125 0 L 3.667969 -0.0117188 L 3.886719 -3.054688 L 6.332031 -3.054688 L 6.597656 -0.0117188 L 6.453125 0 L 6.453125 -0.144531 L 9.867188 -0.144531 L 9.867188 0 L 9.722656 0.015625 L 8.007812 -17.984375 L 8.148438 -17.996094 L 8.148438 -17.851562 L 2.054688 -17.851562 L 2.054688 -17.996094 L 2.195312 -17.984375 Z M 4.296875 -5.925781 L 5.929688 -5.925781 L 5.929688 -5.78125 L 5.785156 -5.769531 L 4.988281 -14.925781 L 5.132812 -14.9375 L 5.132812 -14.792969 L 4.964844 -14.792969 L 4.964844 -14.9375 L 5.109375 -14.925781 L 4.4375 -5.773438 L 4.296875 -5.78125 Z M 4.140625 -5.636719 L 4.832031 -15.082031 L 5.265625 -15.082031 L 6.085938 -5.636719 Z M 8.125 -20.960938 C 8.574219 -21.121094 8.800781 -21.355469 8.800781 -21.664062 C 8.800781 -21.824219 8.761719 -21.941406 8.683594 -22.015625 C 8.605469 -22.089844 8.476562 -22.128906 8.296875 -22.128906 C 8.117188 -22.128906 7.949219 -22.09375 7.78125 -22.03125 L 7.585938 -21.957031 L 7.585938 -23.394531 L 7.675781 -23.429688 C 8.070312 -23.59375 8.480469 -23.671875 8.902344 -23.671875 C 9.472656 -23.671875 9.917969 -23.523438 10.238281 -23.226562 C 10.5625 -22.925781 10.722656 -22.515625 10.722656 -22 C 10.722656 -20.964844 10.117188 -20.265625 8.902344 -19.910156 L 8.816406 -19.886719 L 7.921875 -20.890625 Z M 8.21875 -20.691406 L 8.171875 -20.824219 L 8.277344 -20.921875 L 8.96875 -20.144531 L 8.863281 -20.050781 L 8.820312 -20.1875 C 9.898438 -20.503906 10.4375 -21.105469 10.4375 -22 C 10.4375 -22.433594 10.304688 -22.769531 10.042969 -23.015625 C 9.777344 -23.261719 9.398438 -23.382812 8.902344 -23.382812 C 8.519531 -23.382812 8.144531 -23.3125 7.785156 -23.164062 L 7.730469 -23.296875 L 7.875 -23.296875 L 7.875 -22.167969 L 7.730469 -22.167969 L 7.679688 -22.300781 C 7.878906 -22.378906 8.082031 -22.414062 8.296875 -22.414062 C 8.550781 -22.414062 8.746094 -22.351562 8.882812 -22.222656 C 9.019531 -22.09375 9.089844 -21.90625 9.089844 -21.664062 C 9.089844 -21.21875 8.800781 -20.894531 8.21875 -20.691406 Z M 1.027344 -18.890625 L 3.5 -21.554688 L 6.640625 -21.554688 L 9.339844 -18.648438 L 6.003906 -18.671875 L 4.953125 -20.113281 L 5.070312 -20.195312 L 5.1875 -20.113281 L 4.136719 -18.671875 L 0.800781 -18.648438 Z M 1.238281 -18.695312 L 1.132812 -18.792969 L 1.128906 -18.9375 L 4.0625 -18.957031 L 4.066406 -18.8125 L 3.949219 -18.898438 L 5.070312 -20.441406 L 6.191406 -18.898438 L 6.074219 -18.8125 L 6.078125 -18.957031 L 9.011719 -18.9375 L 9.007812 -18.792969 L 8.902344 -18.695312 L 6.472656 -21.3125 L 6.578125 -21.410156 L 6.578125 -21.269531 L 3.5625 -21.269531 L 3.5625 -21.410156 L 3.667969 -21.3125 Z M 1.238281 -18.695312 "/></g></g></g><g fill="#e2fff2" fill-opacity="1"><g transform="translate(111.125291, 36.426205)"><g><path d="M 0.652344 0 L 0.652344 -18.140625 L 6.410156 -18.140625 L 7.9375 -7.039062 L 7.792969 -7.019531 L 7.652344 -7.039062 L 9.175781 -18.140625 L 14.976562 -18.140625 L 14.976562 0.144531 L 11.398438 0.144531 L 11.398438 -12.96875 L 11.542969 -12.96875 L 11.6875 -12.945312 L 9.59375 0.144531 L 6.121094 0.144531 L 3.902344 -12.945312 L 4.042969 -12.96875 L 4.1875 -12.96875 L 4.1875 0.144531 L 0.652344 0.144531 Z M 0.941406 0 L 0.796875 0 L 0.796875 -0.144531 L 4.042969 -0.144531 L 4.042969 0 L 3.898438 0 L 3.898438 -12.96875 L 4.1875 -12.992188 L 6.386719 -0.0234375 L 6.242188 0 L 6.242188 -0.144531 L 9.46875 -0.144531 L 9.46875 0 L 9.328125 -0.0234375 L 11.402344 -12.992188 L 11.6875 -12.96875 L 11.6875 0 L 11.542969 0 L 11.542969 -0.144531 L 14.832031 -0.144531 L 14.832031 0 L 14.6875 0 L 14.6875 -17.996094 L 14.832031 -17.996094 L 14.832031 -17.851562 L 9.300781 -17.851562 L 9.300781 -17.996094 L 9.445312 -17.976562 L 7.9375 -7 L 7.652344 -7 L 6.144531 -17.976562 L 6.285156 -17.996094 L 6.285156 -17.851562 L 0.796875 -17.851562 L 0.796875 -17.996094 L 0.941406 -17.996094 Z M 0.941406 0 "/></g></g></g><g fill="#e2fff2" fill-opacity="1"><g transform="translate(126.748409, 36.426205)"><g/></g></g><g fill="#e2fff2" fill-opacity="1"><g transform="translate(131.648955, 36.426205)"><g><path d="M 0.652344 0 L 0.652344 -18.140625 L 4.625 -18.140625 L 6.300781 -9.414062 L 6.160156 -9.386719 L 6.015625 -9.386719 L 6.015625 -18.140625 L 9.78125 -18.140625 L 9.78125 0.144531 L 6 0.144531 L 4.175781 -8.980469 L 4.316406 -9.007812 L 4.460938 -9.007812 L 4.460938 0.144531 L 0.652344 0.144531 Z M 0.941406 0 L 0.796875 0 L 0.796875 -0.144531 L 4.316406 -0.144531 L 4.316406 0 L 4.171875 0 L 4.171875 -9.007812 L 4.457031 -9.039062 L 6.257812 -0.0273438 L 6.117188 0 L 6.117188 -0.144531 L 9.636719 -0.144531 L 9.636719 0 L 9.492188 0 L 9.492188 -17.996094 L 9.636719 -17.996094 L 9.636719 -17.851562 L 6.160156 -17.851562 L 6.160156 -17.996094 L 6.304688 -17.996094 L 6.304688 -9.386719 L 6.019531 -9.359375 L 4.363281 -17.96875 L 4.503906 -17.996094 L 4.503906 -17.851562 L 0.796875 -17.851562 L 0.796875 -17.996094 L 0.941406 -17.996094 Z M 0.941406 0 "/></g></g></g><g fill="#e2fff2" fill-opacity="1"><g transform="translate(142.078327, 36.426205)"><g><path d="M 5.089844 0.3125 C 3.59375 0.3125 2.453125 -0.148438 1.671875 -1.070312 C 0.894531 -1.984375 0.503906 -3.261719 0.503906 -4.902344 L 0.503906 -13.472656 C 0.503906 -15.058594 0.894531 -16.261719 1.675781 -17.082031 C 2.460938 -17.898438 3.597656 -18.308594 5.089844 -18.308594 C 6.585938 -18.308594 7.722656 -17.898438 8.503906 -17.082031 C 9.285156 -16.261719 9.675781 -15.058594 9.675781 -13.472656 L 9.675781 -4.902344 C 9.675781 -3.246094 9.289062 -1.964844 8.511719 -1.058594 C 7.726562 -0.144531 6.589844 0.3125 5.089844 0.3125 Z M 5.089844 0.0234375 C 6.5 0.0234375 7.566406 -0.398438 8.292969 -1.246094 C 9.023438 -2.097656 9.386719 -3.316406 9.386719 -4.902344 L 9.386719 -13.472656 C 9.386719 -14.984375 9.023438 -16.121094 8.296875 -16.882812 C 7.570312 -17.640625 6.503906 -18.019531 5.089844 -18.019531 C 3.679688 -18.019531 2.609375 -17.640625 1.886719 -16.882812 C 1.15625 -16.121094 0.792969 -14.984375 0.792969 -13.472656 L 0.792969 -4.902344 C 0.792969 -3.332031 1.160156 -2.117188 1.890625 -1.257812 C 2.617188 -0.402344 3.683594 0.0234375 5.089844 0.0234375 Z M 5.089844 -3.285156 C 5.347656 -3.285156 5.519531 -3.394531 5.605469 -3.613281 C 5.710938 -3.878906 5.765625 -4.25 5.765625 -4.734375 L 5.765625 -13.535156 C 5.765625 -13.90625 5.714844 -14.203125 5.617188 -14.429688 C 5.539062 -14.617188 5.371094 -14.710938 5.113281 -14.710938 C 4.863281 -14.710938 4.679688 -14.617188 4.554688 -14.433594 C 4.421875 -14.230469 4.355469 -13.917969 4.355469 -13.492188 L 4.355469 -4.714844 C 4.355469 -4.21875 4.414062 -3.847656 4.53125 -3.601562 C 4.628906 -3.390625 4.816406 -3.285156 5.089844 -3.285156 Z M 5.089844 -3 C 4.695312 -3 4.421875 -3.160156 4.269531 -3.480469 C 4.132812 -3.765625 4.066406 -4.175781 4.066406 -4.714844 L 4.066406 -13.492188 C 4.066406 -13.976562 4.148438 -14.34375 4.316406 -14.59375 C 4.496094 -14.863281 4.761719 -15 5.113281 -15 C 5.496094 -15 5.753906 -14.847656 5.882812 -14.542969 C 5.996094 -14.28125 6.050781 -13.945312 6.050781 -13.535156 L 6.050781 -4.734375 C 6.050781 -4.214844 5.992188 -3.804688 5.875 -3.507812 C 5.738281 -3.167969 5.476562 -3 5.089844 -3 Z M 8.144531 -20.960938 C 8.597656 -21.121094 8.824219 -21.355469 8.824219 -21.664062 C 8.824219 -21.824219 8.785156 -21.941406 8.707031 -22.015625 C 8.625 -22.089844 8.496094 -22.128906 8.316406 -22.128906 C 8.140625 -22.128906 7.96875 -22.09375 7.804688 -22.03125 L 7.609375 -21.957031 L 7.609375 -23.394531 L 7.699219 -23.429688 C 8.09375 -23.59375 8.5 -23.671875 8.925781 -23.671875 C 9.492188 -23.671875 9.9375 -23.523438 10.257812 -23.226562 C 10.582031 -22.925781 10.746094 -22.515625 10.746094 -22 C 10.746094 -20.964844 10.136719 -20.265625 8.921875 -19.910156 L 8.835938 -19.886719 L 7.941406 -20.890625 Z M 8.238281 -20.691406 L 8.191406 -20.824219 L 8.300781 -20.921875 L 8.992188 -20.144531 L 8.882812 -20.050781 L 8.84375 -20.1875 C 9.917969 -20.503906 10.457031 -21.105469 10.457031 -22 C 10.457031 -22.433594 10.324219 -22.769531 10.0625 -23.015625 C 9.796875 -23.261719 9.417969 -23.382812 8.925781 -23.382812 C 8.539062 -23.382812 8.164062 -23.3125 7.804688 -23.164062 L 7.75 -23.296875 L 7.894531 -23.296875 L 7.894531 -22.167969 L 7.75 -22.167969 L 7.699219 -22.300781 C 7.898438 -22.378906 8.105469 -22.414062 8.316406 -22.414062 C 8.570312 -22.414062 8.765625 -22.351562 8.902344 -22.222656 C 9.042969 -22.09375 9.109375 -21.90625 9.109375 -21.664062 C 9.109375 -21.21875 8.820312 -20.894531 8.238281 -20.691406 Z M 1.046875 -18.890625 L 3.519531 -21.554688 L 6.664062 -21.554688 L 9.363281 -18.648438 L 6.023438 -18.671875 L 4.972656 -20.113281 L 5.089844 -20.195312 L 5.207031 -20.113281 L 4.160156 -18.671875 L 0.820312 -18.648438 Z M 1.257812 -18.695312 L 1.152344 -18.792969 L 1.152344 -18.9375 L 4.085938 -18.957031 L 4.085938 -18.8125 L 3.96875 -18.898438 L 5.089844 -20.441406 L 6.214844 -18.898438 L 6.097656 -18.8125 L 6.097656 -18.957031 L 9.03125 -18.9375 L 9.03125 -18.792969 L 8.925781 -18.695312 L 6.492188 -21.3125 L 6.601562 -21.410156 L 6.601562 -21.269531 L 3.582031 -21.269531 L 3.582031 -21.410156 L 3.6875 -21.3125 Z M 1.257812 -18.695312 "/></g></g></g><g fill="#e2fff2" fill-opacity="1"><g transform="translate(152.256397, 36.426205)"><g><path d="M 0.484375 -18.140625 L 4.25 -18.140625 L 4.25 0.144531 L 0.484375 0.144531 Z M 0.773438 -17.851562 L 0.773438 -0.144531 L 3.960938 -0.144531 L 3.960938 -17.851562 Z M 0.773438 -17.851562 "/></g></g></g><g fill="#e2fff2" fill-opacity="1"><g transform="translate(157.010344, 36.426205)"><g/></g></g><g fill="#e2fff2" fill-opacity="1"><g transform="translate(161.91089, 36.426205)"><g><path d="M 0.796875 -18.140625 L 5.679688 -18.140625 C 7.03125 -18.140625 8.019531 -17.804688 8.644531 -17.132812 C 9.261719 -16.460938 9.570312 -15.378906 9.570312 -13.890625 L 9.570312 -13.09375 C 9.570312 -11.304688 8.921875 -10.230469 7.621094 -9.875 L 7.585938 -10.015625 L 7.621094 -10.152344 C 8.421875 -9.945312 8.984375 -9.464844 9.308594 -8.710938 C 9.625 -7.980469 9.78125 -7.015625 9.78125 -5.824219 C 9.78125 -3.886719 9.488281 -2.410156 8.902344 -1.40625 C 8.300781 -0.371094 7.226562 0.144531 5.679688 0.144531 L 0.652344 0.144531 L 0.652344 -18.140625 Z M 0.796875 -17.851562 L 0.796875 -17.996094 L 0.941406 -17.996094 L 0.941406 0 L 0.796875 0 L 0.796875 -0.144531 L 5.679688 -0.144531 C 7.117188 -0.144531 8.109375 -0.613281 8.652344 -1.550781 C 9.214844 -2.511719 9.492188 -3.9375 9.492188 -5.824219 C 9.492188 -6.976562 9.34375 -7.902344 9.042969 -8.597656 C 8.753906 -9.265625 8.257812 -9.691406 7.546875 -9.875 L 7.023438 -10.011719 L 7.546875 -10.152344 C 8.703125 -10.46875 9.285156 -11.449219 9.285156 -13.09375 L 9.285156 -13.890625 C 9.285156 -15.304688 9 -16.320312 8.433594 -16.933594 C 7.867188 -17.546875 6.949219 -17.851562 5.679688 -17.851562 Z M 5.050781 -11.375 C 5.296875 -11.375 5.460938 -11.460938 5.546875 -11.636719 C 5.648438 -11.847656 5.703125 -12.152344 5.703125 -12.550781 L 5.703125 -14.351562 C 5.703125 -14.609375 5.648438 -14.796875 5.542969 -14.917969 C 5.441406 -15.03125 5.285156 -15.085938 5.070312 -15.085938 L 4.316406 -15.085938 L 4.316406 -15.230469 L 4.460938 -15.230469 L 4.460938 -11.230469 L 4.316406 -11.230469 L 4.316406 -11.375 Z M 5.050781 -11.085938 L 4.171875 -11.085938 L 4.171875 -15.375 L 5.070312 -15.375 C 5.371094 -15.375 5.601562 -15.285156 5.757812 -15.105469 C 5.914062 -14.933594 5.988281 -14.679688 5.988281 -14.351562 L 5.988281 -12.550781 C 5.988281 -12.109375 5.929688 -11.761719 5.808594 -11.511719 C 5.667969 -11.226562 5.417969 -11.085938 5.050781 -11.085938 Z M 4.671875 -3.308594 C 5.101562 -3.308594 5.417969 -3.40625 5.625 -3.601562 C 5.828125 -3.796875 5.933594 -4.097656 5.933594 -4.503906 L 5.933594 -6.746094 C 5.933594 -7.265625 5.859375 -7.652344 5.710938 -7.910156 C 5.578125 -8.140625 5.335938 -8.257812 4.988281 -8.257812 L 4.316406 -8.257812 L 4.316406 -8.402344 L 4.460938 -8.402344 L 4.460938 -3.183594 L 4.316406 -3.183594 L 4.324219 -3.328125 L 4.679688 -3.308594 L 4.671875 -3.164062 Z M 4.667969 -3.019531 L 4.171875 -3.046875 L 4.171875 -8.546875 L 4.988281 -8.546875 C 5.445312 -8.546875 5.773438 -8.382812 5.960938 -8.054688 C 6.132812 -7.753906 6.21875 -7.316406 6.21875 -6.746094 L 6.21875 -4.503906 C 6.21875 -4.015625 6.089844 -3.648438 5.824219 -3.394531 C 5.5625 -3.144531 5.179688 -3.019531 4.671875 -3.019531 Z M 4.667969 -3.019531 "/></g></g></g><g fill="#e2fff2" fill-opacity="1"><g transform="translate(171.942361, 36.426205)"><g><path d="M 0.171875 -0.015625 L 1.921875 -18.140625 L 8.28125 -18.140625 L 10.027344 0.144531 L 6.320312 0.144531 L 6.058594 -2.898438 L 6.203125 -2.914062 L 6.203125 -2.769531 L 4.023438 -2.769531 L 4.023438 -2.914062 L 4.167969 -2.902344 L 3.945312 0.144531 L 0.15625 0.144531 Z M 0.457031 0.015625 L 0.3125 0 L 0.3125 -0.144531 L 3.8125 -0.144531 L 3.8125 0 L 3.667969 -0.0117188 L 3.886719 -3.054688 L 6.332031 -3.054688 L 6.597656 -0.0117188 L 6.453125 0 L 6.453125 -0.144531 L 9.867188 -0.144531 L 9.867188 0 L 9.722656 0.015625 L 8.007812 -17.984375 L 8.148438 -17.996094 L 8.148438 -17.851562 L 2.054688 -17.851562 L 2.054688 -17.996094 L 2.195312 -17.984375 Z M 4.296875 -5.925781 L 5.929688 -5.925781 L 5.929688 -5.78125 L 5.785156 -5.769531 L 4.988281 -14.925781 L 5.132812 -14.9375 L 5.132812 -14.792969 L 4.964844 -14.792969 L 4.964844 -14.9375 L 5.109375 -14.925781 L 4.4375 -5.773438 L 4.296875 -5.78125 Z M 4.140625 -5.636719 L 4.832031 -15.082031 L 5.265625 -15.082031 L 6.085938 -5.636719 Z M 3.125 4.066406 L 3.125 0.863281 L 7.078125 0.863281 L 7.078125 4.207031 L 3.125 4.207031 Z M 3.414062 4.066406 L 3.269531 4.066406 L 3.269531 3.921875 L 6.933594 3.921875 L 6.933594 4.066406 L 6.789062 4.066406 L 6.789062 1.003906 L 6.933594 1.003906 L 6.933594 1.148438 L 3.269531 1.148438 L 3.269531 1.003906 L 3.414062 1.003906 Z M 0.40625 -19.128906 L 2.902344 -22.582031 L 7.238281 -22.582031 L 9.898438 -18.902344 L 5.851562 -18.902344 L 4.9375 -21.191406 L 5.070312 -21.246094 L 5.203125 -21.191406 L 4.289062 -18.902344 L 0.242188 -18.902344 Z M 0.640625 -18.960938 L 0.523438 -19.042969 L 0.523438 -19.1875 L 4.191406 -19.1875 L 4.191406 -19.042969 L 4.054688 -19.097656 L 5.070312 -21.632812 L 6.082031 -19.097656 L 5.949219 -19.042969 L 5.949219 -19.1875 L 9.617188 -19.1875 L 9.617188 -19.042969 L 9.5 -18.960938 L 7.046875 -22.355469 L 7.164062 -22.4375 L 7.164062 -22.292969 L 2.976562 -22.292969 L 2.976562 -22.4375 L 3.09375 -22.355469 Z M 0.640625 -18.960938 "/></g></g></g><g fill="#e2fff2" fill-opacity="1"><g transform="translate(182.099491, 36.426205)"><g><path d="M 4.988281 0.3125 C 3.632812 0.3125 2.546875 -0.113281 1.730469 -0.96875 C 0.914062 -1.820312 0.503906 -2.984375 0.503906 -4.460938 L 0.503906 -12.757812 C 0.503906 -14.582031 0.871094 -15.957031 1.605469 -16.890625 C 2.347656 -17.835938 3.5 -18.308594 5.070312 -18.308594 C 6.433594 -18.308594 7.535156 -17.933594 8.371094 -17.183594 C 9.214844 -16.425781 9.636719 -15.34375 9.636719 -13.933594 L 9.636719 -10.6875 L 5.765625 -10.6875 L 5.765625 -13.492188 C 5.765625 -13.980469 5.707031 -14.3125 5.597656 -14.484375 C 5.5 -14.632812 5.324219 -14.710938 5.070312 -14.710938 C 4.808594 -14.710938 4.628906 -14.625 4.539062 -14.453125 C 4.429688 -14.25 4.375 -13.945312 4.375 -13.535156 L 4.375 -4.503906 C 4.375 -4.058594 4.4375 -3.738281 4.5625 -3.546875 C 4.675781 -3.371094 4.84375 -3.285156 5.070312 -3.285156 C 5.53125 -3.285156 5.765625 -3.691406 5.765625 -4.503906 L 5.765625 -7.894531 L 9.675781 -7.894531 L 9.675781 -4.359375 C 9.675781 -2.808594 9.285156 -1.644531 8.496094 -0.863281 C 7.710938 -0.078125 6.542969 0.3125 4.988281 0.3125 Z M 4.988281 0.0234375 C 6.460938 0.0234375 7.566406 -0.339844 8.292969 -1.066406 C 9.023438 -1.792969 9.386719 -2.890625 9.386719 -4.359375 L 9.386719 -7.75 L 9.53125 -7.75 L 9.53125 -7.609375 L 5.910156 -7.609375 L 5.910156 -7.75 L 6.050781 -7.75 L 6.050781 -4.503906 C 6.050781 -3.5 5.726562 -3 5.070312 -3 C 4.738281 -3 4.488281 -3.128906 4.320312 -3.390625 C 4.164062 -3.628906 4.089844 -4 4.089844 -4.503906 L 4.089844 -13.535156 C 4.089844 -13.992188 4.152344 -14.34375 4.28125 -14.585938 C 4.429688 -14.859375 4.691406 -15 5.070312 -15 C 5.429688 -15 5.6875 -14.878906 5.839844 -14.640625 C 5.980469 -14.417969 6.050781 -14.039062 6.050781 -13.492188 L 6.050781 -10.832031 L 5.910156 -10.832031 L 5.910156 -10.976562 L 9.492188 -10.976562 L 9.492188 -10.832031 L 9.347656 -10.832031 L 9.347656 -13.933594 C 9.347656 -15.257812 8.957031 -16.269531 8.179688 -16.96875 C 7.398438 -17.667969 6.359375 -18.019531 5.070312 -18.019531 C 3.59375 -18.019531 2.515625 -17.585938 1.832031 -16.714844 C 1.140625 -15.832031 0.792969 -14.515625 0.792969 -12.757812 L 0.792969 -4.460938 C 0.792969 -3.0625 1.175781 -1.964844 1.9375 -1.167969 C 2.699219 -0.375 3.714844 0.0234375 4.988281 0.0234375 Z M 4.988281 0.0234375 "/></g></g></g><g clip-path="url(#248ecd5fdd)"><g><g clip-path="url(#bb3ae83894)"><g clip-path="url(#de02f038f4)"><g mask="url(#b4de307b6f)"><g><g clip-path="url(#88dabc1a73)"><g clip-path="url(#5e778c9869)"><path fill="url(#e42be68b24)" d="M 4.109375 0 L 4.109375 46.003906 L 212.65625 46.003906 L 212.65625 0 Z M 4.109375 0 " fill-rule="nonzero"/></g></g></g></g></g></g></g></g></g></g></g><g clip-path="url(#583783ed80)"><path fill="#fda208" d="M 33.238281 13.324219 C 33.496094 9.597656 29.339844 9.257812 33.238281 4.601562 C 31.332031 8.664062 35.664062 9.683594 33.238281 13.324219 " fill-opacity="1" fill-rule="evenodd"/></g><path fill="#fda208" d="M 26.492188 19.085938 C 24.105469 16.847656 26.691406 15.292969 26.492188 13.15625 C 28.28125 15.390625 25.695312 16.558594 26.492188 19.085938 " fill-opacity="1" fill-rule="evenodd"/><path fill="#fda208" d="M 41.304688 14.847656 C 43.691406 12.613281 41.105469 11.058594 41.304688 8.921875 C 39.511719 11.15625 42.101562 12.320312 41.304688 14.847656 " fill-opacity="1" fill-rule="evenodd"/><g clip-path="url(#0afa6a3eda)"><path fill="#fda208" d="M 29.171875 41.957031 C 23.800781 40.980469 20.8125 38.121094 20.382812 34.582031 C 19.324219 25.878906 25.234375 22.8125 24.972656 20.433594 C 26.261719 22.898438 22.375 26.789062 24.972656 30.34375 C 23.761719 22.382812 31.128906 17.554688 30.433594 11.625 C 33.816406 14.003906 29.132812 17.136719 33.207031 21.710938 C 31.039062 14.765625 36.761719 13.15625 34.851562 8.410156 C 43.519531 12.984375 34.851562 22.726562 43 24.421875 C 37.453125 20.777344 42.042969 16.453125 43.859375 14.929688 C 40.828125 19.589844 47.980469 24.15625 47.585938 31.109375 C 47.277344 36.53125 43.683594 40.480469 38.867188 41.765625 C 40.183594 40.769531 41.0625 39.238281 41.167969 37.363281 C 41.367188 33.8125 37.714844 31.480469 39.261719 29.101562 C 38.332031 29.878906 35.988281 32.089844 38.820312 33.949219 C 34.660156 33.085938 39.085938 28.109375 34.660156 25.773438 C 35.636719 28.195312 32.714844 29.015625 33.820312 32.5625 C 31.742188 30.226562 34.128906 28.628906 32.40625 27.417969 C 32.757812 30.445312 28.996094 32.910156 29.617188 36.976562 C 28.289062 35.160156 30.273438 33.171875 29.617188 31.914062 C 29.75 33.121094 26.730469 34.691406 27.269531 39.136719 C 27.40625 40.257812 28.046875 41.246094 29.167969 41.953125 " fill-opacity="1" fill-rule="evenodd"/></g></svg>