<svg xmlns="http://www.w3.org/2000/svg" xmlns:xlink="http://www.w3.org/1999/xlink" width="300" zoomAndPan="magnify" viewBox="0 0 224.87999 225" height="300" preserveAspectRatio="xMidYMid meet" version="1.0"><defs><clipPath id="3d67b7cfff"><path d="M 7.886719 7.949219 L 217.027344 7.949219 L 217.027344 217 L 7.886719 217 Z M 7.886719 7.949219 " clip-rule="nonzero"/></clipPath><clipPath id="97ffe4f828"><path d="M 65 46 L 162 46 L 162 217.085938 L 65 217.085938 Z M 65 46 " clip-rule="nonzero"/></clipPath></defs><g clip-path="url(#3d67b7cfff)"><path fill="#0866ff" d="M 217.054688 112.535156 C 217.054688 54.769531 170.234375 7.949219 112.476562 7.949219 C 54.71875 7.949219 7.886719 54.769531 7.886719 112.535156 C 7.886719 161.582031 41.652344 202.742188 87.207031 214.046875 L 87.207031 144.5 L 65.636719 144.5 L 65.636719 112.535156 L 87.207031 112.535156 L 87.207031 98.765625 C 87.207031 63.171875 103.316406 46.667969 138.261719 46.667969 C 144.890625 46.667969 156.320312 47.964844 160.996094 49.269531 L 160.996094 78.238281 C 158.527344 77.972656 154.238281 77.84375 148.914062 77.84375 C 131.765625 77.84375 125.140625 84.339844 125.140625 101.226562 L 125.140625 112.527344 L 159.296875 112.527344 L 153.429688 144.488281 L 125.140625 144.488281 L 125.140625 216.34375 C 176.925781 210.09375 217.054688 165.996094 217.054688 112.527344 Z M 217.054688 112.535156 " fill-opacity="1" fill-rule="nonzero"/></g><g clip-path="url(#97ffe4f828)"><path fill="#ffffff" d="M 153.441406 144.488281 L 159.308594 112.527344 L 125.148438 112.527344 L 125.148438 101.226562 C 125.148438 84.339844 131.777344 77.84375 148.925781 77.84375 C 154.246094 77.84375 158.539062 77.972656 161.007812 78.238281 L 161.007812 49.269531 C 156.332031 47.972656 144.898438 46.667969 138.269531 46.667969 C 103.324219 46.667969 87.214844 63.171875 87.214844 98.765625 L 87.214844 112.535156 L 65.644531 112.535156 L 65.644531 144.5 L 87.214844 144.5 L 87.214844 214.046875 C 95.308594 216.054688 103.765625 217.125 112.484375 217.125 C 116.777344 217.125 121 216.863281 125.15625 216.355469 L 125.15625 144.5 L 153.449219 144.5 Z M 153.441406 144.488281 " fill-opacity="1" fill-rule="nonzero"/></g></svg>